# xmcd
#
# Track frame offsets: 
#        150
#        11659
#        29175
#        45162
#        66876
#        82709
#        95579
#        107563
#        124714
#        151198
#        169809
#        181536
#        201024
#        216363
#        233512
#        250572
#        272329
#        298494
#        316907
#        329208
#        343999
#
# Disc length: 4707 seconds
#
# Revision: 1
# Processed by: cddbd v1.5.2PL0 Copyright (c) Steve Scherf et al.
# Submitted via: ExactAudioCopyFreeDBPlugin 1.0
#
DISCID=24126115
DTITLE=Various Artist - The Sisters of Soul [Sanctuary Records]
DYEAR=2004
DGENRE=Soul
TTITLE0=Aretha Franklin - One Step Ahead
TTITLE1=Laura Lee - Her Picture Matches Mine
TTITLE2=Thelma Jones - Salty Tears
TTITLE3=Shirley Brown - Giving Up
TTITLE4=Carolyn Franklin - You Really Didn't Mean It
TTITLE5=Freda Payne - Come Back
TTITLE6=Brenda Holloway - Some Quiet Place
TTITLE7=Eloise Laws - Ain't it Good Feeling Good
TTITLE8=The Honeycone - Who's it Gonna Be
TTITLE9=Linda Jones - Not on the Outside
TTITLE10=Susan Phillips - Just How Long
TTITLE11=Lezli Valentine - Love on a Two Way Street
TTITLE12=Mattie Moultrie - Saddest Story Ever Told
TTITLE13=P.P. Arnold - Life is But Nothing
TTITLE14=Thelma Jones - I'd Rather Leave While I'm in Love
TTITLE15=Cat Miller - Be for Real
TTITLE16=Carrie Lucas - Show Me Where You're Coming
TTITLE17=Candi Stanton - Count on Me
TTITLE18=Debbie Taylor - Too Sad to Tell
TTITLE19=Retta Young - (Sending Out an) S.O.S.
TTITLE20=Aretha Franklin - Little Miss Raggedy Ann
EXTD=
EXTT0=
EXTT1=
EXTT2=
EXTT3=
EXTT4=
EXTT5=
EXTT6=
EXTT7=
EXTT8=
EXTT9=
EXTT10=
EXTT11=
EXTT12=
EXTT13=
EXTT14=
EXTT15=
EXTT16=
EXTT17=
EXTT18=
EXTT19=
EXTT20=
PLAYORDER=
